<?xml version="1.0"?>
<svg xmlns="http://www.w3.org/2000/svg" xmlns:xlink="http://www.w3.org/1999/xlink" version="1.1" id="Layer_1" x="0px" y="0px" viewBox="0 0 485 485" style="enable-background:new 0 0 485 485;" xml:space="preserve" width="512px" height="512px"><g><g>
	<path d="M0,0v485h485V0H0z M455,455H30V30h425V455z" data-original="#000000" class="active-path" data-old_color="#000000" fill="#800080"/>
	<path d="M118.75,401.25c19.299,0,35-15.701,35-35s-15.701-35-35-35s-35,15.701-35,35S99.451,401.25,118.75,401.25z" data-original="#000000" class="active-path" data-old_color="#000000" fill="#800080"/>
	<path d="M118.75,153.75c19.299,0,35-15.701,35-35s-15.701-35-35-35s-35,15.701-35,35S99.451,153.75,118.75,153.75z" data-original="#000000" class="active-path" data-old_color="#000000" fill="#800080"/>
	<path d="M366.25,401.25c19.299,0,35-15.701,35-35s-15.701-35-35-35s-35,15.701-35,35S346.951,401.25,366.25,401.25z" data-original="#000000" class="active-path" data-old_color="#000000" fill="#800080"/>
	<path d="M366.25,153.75c19.299,0,35-15.701,35-35s-15.701-35-35-35s-35,15.701-35,35S346.951,153.75,366.25,153.75z" data-original="#000000" class="active-path" data-old_color="#000000" fill="#800080"/>
</g></g> </svg>
